<svg width="21" height="21" viewBox="0 0 21 21" fill="none" xmlns="http://www.w3.org/2000/svg">
<path fill-rule="evenodd" clip-rule="evenodd" d="M10.239 0C15.609 0 19.977 4.368 19.977 9.738C19.977 12.2715 19.0047 14.5823 17.4136 16.3165L20.5444 19.4407C20.8374 19.7337 20.8384 20.2077 20.5454 20.5007C20.3994 20.6487 20.2064 20.7217 20.0144 20.7217C19.8234 20.7217 19.6314 20.6487 19.4844 20.5027L16.3159 17.343C14.6491 18.6778 12.5357 19.477 10.239 19.477C4.869 19.477 0.5 15.108 0.5 9.738C0.5 4.368 4.869 0 10.239 0ZM10.239 1.5C5.696 1.5 2 5.195 2 9.738C2 14.281 5.696 17.977 10.239 17.977C14.781 17.977 18.477 14.281 18.477 9.738C18.477 5.195 14.781 1.5 10.239 1.5Z" fill="black"/>
</svg>
