<svg width="20" height="21" viewBox="0 0 20 21" fill="none" xmlns="http://www.w3.org/2000/svg">
<path fill-rule="evenodd" clip-rule="evenodd" d="M9.78083 0.000305176C12.3947 0.000305176 14.554 1.99196 14.8202 4.53923L14.8945 4.54011C16.3445 4.54011 18.1075 5.5031 18.7025 8.2041L19.4915 14.3111C19.7745 16.2821 19.4205 17.8631 18.4375 18.9971C17.4595 20.1251 15.9115 20.7221 13.9605 20.7221H5.61253C3.46953 20.7221 1.97653 20.1971 1.04753 19.1181C0.114531 18.0361 -0.197469 16.4131 0.120531 14.2951L0.896531 8.2691C1.40653 5.5061 3.27153 4.54011 4.71553 4.54011C4.84019 3.39058 5.35853 2.29701 6.18083 1.47731C7.12583 0.538305 8.42883 0.000305176 9.75983 0.000305176H9.78083ZM14.8945 6.04011H4.71553C4.27453 6.04011 2.80053 6.2181 2.37753 8.5021L1.60553 14.5021C1.35453 16.1851 1.54853 17.4031 2.18353 18.1401C2.81053 18.8681 3.93253 19.2221 5.61253 19.2221H13.9605C15.0085 19.2221 16.4395 19.0131 17.3035 18.0151C17.9895 17.2241 18.2255 16.0461 18.0055 14.5131L17.2265 8.4611C16.8945 6.9701 16.0185 6.04011 14.8945 6.04011ZM12.6973 8.8242C13.1113 8.8242 13.4703 9.1602 13.4703 9.5742C13.4703 9.9882 13.1573 10.3242 12.7433 10.3242H12.6973C12.2833 10.3242 11.9473 9.9882 11.9473 9.5742C11.9473 9.1602 12.2833 8.8242 12.6973 8.8242ZM6.86723 8.8242C7.28123 8.8242 7.64023 9.1602 7.64023 9.5742C7.64023 9.9882 7.32623 10.3242 6.91223 10.3242H6.86723C6.45323 10.3242 6.11723 9.9882 6.11723 9.5742C6.11723 9.1602 6.45323 8.8242 6.86723 8.8242ZM9.77783 1.50031H9.76283C8.82183 1.50031 7.90483 1.87931 7.23983 2.54031C6.69813 3.07957 6.34385 3.7885 6.22924 4.53964L13.3085 4.53992C13.0516 2.82168 11.5657 1.50031 9.77783 1.50031Z" fill="black"/>
</svg>
